<svg xmlns="http://www.w3.org/2000/svg" width="64" height="64" viewBox="0 0 64 64" fill="none">
  <defs>
    <linearGradient id="bg" x1="12" y1="8" x2="52" y2="56" gradientUnits="userSpaceOnUse">
      <stop stop-color="#8B9D77" />
      <stop offset="1" stop-color="#A8C090" />
    </linearGradient>
  </defs>
  <rect x="4" y="4" width="56" height="56" rx="16" fill="url(#bg)" />
  <g transform="translate(13 11) scale(1.6)">
    <path
      d="m17 14 3 3.3a1 1 0 0 1-.7 1.7H4.7a1 1 0 0 1-.7-1.7L7 14h-.3a1 1 0 0 1-.7-1.7L9 9h-.2A1 1 0 0 1 8 7.3L12 3l4 4.3a1 1 0 0 1-.8 1.7H15l3 3.3a1 1 0 0 1-.7 1.7H17Z"
      fill="none"
      stroke="white"
      stroke-width="1.9"
      stroke-linecap="round"
      stroke-linejoin="round"
    />
    <path
      d="M12 22v-3"
      fill="none"
      stroke="white"
      stroke-width="1.9"
      stroke-linecap="round"
      stroke-linejoin="round"
    />
  </g>
</svg>
