<svg xmlns="http://www.w3.org/2000/svg" width="1024" height="1024" viewBox="0 0 1024 1024" fill="none">
  <defs>
    <linearGradient id="icon-bg" x1="180" y1="140" x2="860" y2="900" gradientUnits="userSpaceOnUse">
      <stop stop-color="#8B9D77" />
      <stop offset="1" stop-color="#A8C090" />
    </linearGradient>
    <linearGradient id="icon-glow" x1="330" y1="240" x2="760" y2="700" gradientUnits="userSpaceOnUse">
      <stop stop-color="#FFFFFF" stop-opacity="0.25" />
      <stop offset="1" stop-color="#FFFFFF" stop-opacity="0" />
    </linearGradient>
  </defs>

  <rect x="0" y="0" width="1024" height="1024" fill="url(#icon-bg)" />
  <circle cx="700" cy="260" r="280" fill="url(#icon-glow)" />

  <g transform="translate(238 200) scale(23)">
    <path
      d="m17 14 3 3.3a1 1 0 0 1-.7 1.7H4.7a1 1 0 0 1-.7-1.7L7 14h-.3a1 1 0 0 1-.7-1.7L9 9h-.2A1 1 0 0 1 8 7.3L12 3l4 4.3a1 1 0 0 1-.8 1.7H15l3 3.3a1 1 0 0 1-.7 1.7H17Z"
      fill="none"
      stroke="#FFFFFF"
      stroke-width="1.7"
      stroke-linecap="round"
      stroke-linejoin="round"
    />
    <path
      d="M12 22v-3"
      fill="none"
      stroke="#FFFFFF"
      stroke-width="1.7"
      stroke-linecap="round"
      stroke-linejoin="round"
    />
  </g>
</svg>
